<svg xmlns="http://www.w3.org/2000/svg" xmlns:xlink="http://www.w3.org/1999/xlink" width="1126" height="1125" contentScriptType="application/ecmascript" contentStyleType="text/css" style="width:1126px;height:1125px" preserveAspectRatio="none" version="1.1" viewBox="0 0 1126 1125" zoomAndPan="magnify"><g><rect style="stroke:#383838;stroke-width:1" width="124" height="1110.099" x="153" y="4" fill="#CCC"/><text x="156" y="16.384" fill="#000" font-family="sans-serif" font-size="13" font-weight="bold" lengthAdjust="spacingAndGlyphs" textLength="118">External Program</text><rect style="stroke:#383838;stroke-width:1" width="227" height="1110.099" x="882" y="4" fill="#CCC"/><text x="955" y="16.384" fill="#000" font-family="sans-serif" font-size="13" font-weight="bold" lengthAdjust="spacingAndGlyphs" textLength="81">AWS Service</text><rect style="stroke:#000;stroke-width:2" width="1102" height="854.14" x="13" y="131.543" fill="#FFF"/><rect style="stroke:#000;stroke-width:2" width="1017" height="648.254" x="23" y="243.049" fill="#FFF"/><rect style="stroke:#000;stroke-width:2" width="436" height="104.506" x="584" y="325.428" fill="#FFF"/><rect style="stroke:#000;stroke-width:2" width="767" height="323.863" x="263" y="560.44" fill="#FFF"/><rect style="stroke:#000;stroke-width:2" width="747" height="263.61" x="273" y="613.693" fill="#FFF"/><rect style="stroke:none;stroke-width:1" width="747" height="86.052" x="273" y="689.072" fill="#FFF"/><rect style="stroke:none;stroke-width:1" width="747" height="102.179" x="273" y="775.125" fill="#FFF"/><line style="stroke:#383838;stroke-width:1;stroke-dasharray:5,5" x1="51" x2="51" y1="85.416" y2="1031.809"/><line style="stroke:#383838;stroke-width:1;stroke-dasharray:5,5" x1="214.5" x2="214.5" y1="85.416" y2="1031.809"/><line style="stroke:#383838;stroke-width:1;stroke-dasharray:5,5" x1="314" x2="314" y1="85.416" y2="1031.809"/><line style="stroke:#383838;stroke-width:1;stroke-dasharray:5,5" x1="461" x2="461" y1="85.416" y2="1031.809"/><line style="stroke:#383838;stroke-width:1;stroke-dasharray:5,5" x1="653" x2="653" y1="85.416" y2="1031.809"/><line style="stroke:#383838;stroke-width:1;stroke-dasharray:5,5" x1="848" x2="848" y1="85.416" y2="1031.809"/><line style="stroke:#383838;stroke-width:1;stroke-dasharray:5,5" x1="948" x2="948" y1="85.416" y2="1031.809"/><line style="stroke:#383838;stroke-width:1;stroke-dasharray:5,5" x1="1062" x2="1062" y1="85.416" y2="1031.809"/><text x="33" y="82.429" fill="#000" font-family="sans-serif" font-size="14" lengthAdjust="spacingAndGlyphs" textLength="31">User</text><ellipse cx="51.5" cy="16.127" fill="#F8F8F8" rx="8" ry="8" style="stroke:#383838;stroke-width:2"/><path fill="none" d="M51.5,24.1265 L51.5,51.1265 M38.5,32.1265 L64.5,32.1265 M51.5,51.1265 L38.5,66.1265 M51.5,51.1265 L64.5,66.1265" style="stroke:#383838;stroke-width:2"/><text x="33" y="1044.112" fill="#000" font-family="sans-serif" font-size="14" lengthAdjust="spacingAndGlyphs" textLength="31">User</text><ellipse cx="51.5" cy="1057.099" fill="#F8F8F8" rx="8" ry="8" style="stroke:#383838;stroke-width:2"/><path fill="none" d="M51.5,1065.0991 L51.5,1092.0991 M38.5,1073.0991 L64.5,1073.0991 M51.5,1092.0991 L38.5,1107.0991 M51.5,1092.0991 L64.5,1107.0991" style="stroke:#383838;stroke-width:2"/><rect style="stroke:#383838;stroke-width:1.5" width="69" height="30.29" x="180.5" y="54.127" fill="#F8F8F8"/><text x="187.5" y="74.429" fill="#000" font-family="sans-serif" font-size="14" lengthAdjust="spacingAndGlyphs" textLength="55">Browser</text><rect style="stroke:#383838;stroke-width:1.5" width="69" height="30.29" x="180.5" y="1030.809" fill="#F8F8F8"/><text x="187.5" y="1051.112" fill="#000" font-family="sans-serif" font-size="14" lengthAdjust="spacingAndGlyphs" textLength="55">Browser</text><rect style="stroke:#383838;stroke-width:1.5" width="62" height="30.29" x="283" y="54.127" fill="#F8F8F8"/><text x="290" y="74.429" fill="#000" font-family="sans-serif" font-size="14" lengthAdjust="spacingAndGlyphs" textLength="48">Toolkit</text><rect style="stroke:#383838;stroke-width:1.5" width="62" height="30.29" x="283" y="1030.809" fill="#F8F8F8"/><text x="290" y="1051.112" fill="#000" font-family="sans-serif" font-size="14" lengthAdjust="spacingAndGlyphs" textLength="48">Toolkit</text><rect style="stroke:#383838;stroke-width:1.5" width="78" height="46.58" x="422" y="37.836" fill="#F8F8F8"/><text x="429" y="58.139" fill="#000" font-family="sans-serif" font-size="14" lengthAdjust="spacingAndGlyphs" textLength="64">SSO Cred</text><text x="432.5" y="74.429" fill="#000" font-family="sans-serif" font-size="14" lengthAdjust="spacingAndGlyphs" textLength="57">Provider</text><rect style="stroke:#383838;stroke-width:1.5" width="78" height="46.58" x="422" y="1030.809" fill="#F8F8F8"/><text x="429" y="1051.112" fill="#000" font-family="sans-serif" font-size="14" lengthAdjust="spacingAndGlyphs" textLength="64">SSO Cred</text><text x="432.5" y="1067.402" fill="#000" font-family="sans-serif" font-size="14" lengthAdjust="spacingAndGlyphs" textLength="57">Provider</text><rect style="stroke:#383838;stroke-width:1.5" width="118" height="46.58" x="594" y="37.836" fill="#F8F8F8"/><text x="614.5" y="58.139" fill="#000" font-family="sans-serif" font-size="14" lengthAdjust="spacingAndGlyphs" textLength="77">SSO Access</text><text x="601" y="74.429" fill="#000" font-family="sans-serif" font-size="14" lengthAdjust="spacingAndGlyphs" textLength="104">Token Provider</text><rect style="stroke:#383838;stroke-width:1.5" width="118" height="46.58" x="594" y="1030.809" fill="#F8F8F8"/><text x="614.5" y="1051.112" fill="#000" font-family="sans-serif" font-size="14" lengthAdjust="spacingAndGlyphs" textLength="77">SSO Access</text><text x="601" y="1067.402" fill="#000" font-family="sans-serif" font-size="14" lengthAdjust="spacingAndGlyphs" textLength="104">Token Provider</text><rect style="stroke:#383838;stroke-width:1.5" width="56" height="30.29" x="820" y="54.127" fill="#F8F8F8"/><text x="827" y="74.429" fill="#000" font-family="sans-serif" font-size="14" lengthAdjust="spacingAndGlyphs" textLength="42">Cache</text><rect style="stroke:#383838;stroke-width:1.5" width="56" height="30.29" x="820" y="1030.809" fill="#F8F8F8"/><text x="827" y="1051.112" fill="#000" font-family="sans-serif" font-size="14" lengthAdjust="spacingAndGlyphs" textLength="42">Cache</text><text x="886" y="82.429" fill="#000" font-family="sans-serif" font-size="14" lengthAdjust="spacingAndGlyphs" textLength="118">SSO OIDC Service</text><path fill="#F8F8F8" d="M930,33.1265 C930,23.1265 948,23.1265 948,23.1265 C948,23.1265 966,23.1265 966,33.1265 L966,59.1265 C966,69.1265 948,69.1265 948,69.1265 C948,69.1265 930,69.1265 930,59.1265 L930,33.1265" style="stroke:#000;stroke-width:1.5"/><path fill="none" d="M930,33.1265 C930,43.1265 948,43.1265 948,43.1265 C948,43.1265 966,43.1265 966,33.1265" style="stroke:#000;stroke-width:1.5"/><text x="886" y="1044.112" fill="#000" font-family="sans-serif" font-size="14" lengthAdjust="spacingAndGlyphs" textLength="118">SSO OIDC Service</text><path fill="#F8F8F8" d="M930,1057.0991 C930,1047.0991 948,1047.0991 948,1047.0991 C948,1047.0991 966,1047.0991 966,1057.0991 L966,1083.0991 C966,1093.0991 948,1093.0991 948,1093.0991 C948,1093.0991 930,1093.0991 930,1083.0991 L930,1057.0991" style="stroke:#000;stroke-width:1.5"/><path fill="none" d="M930,1057.0991 C930,1067.0991 948,1067.0991 948,1067.0991 C948,1067.0991 966,1067.0991 966,1057.0991" style="stroke:#000;stroke-width:1.5"/><text x="1020" y="82.429" fill="#000" font-family="sans-serif" font-size="14" lengthAdjust="spacingAndGlyphs" textLength="79">SSO Service</text><path fill="#F8F8F8" d="M1044.5,33.1265 C1044.5,23.1265 1062.5,23.1265 1062.5,23.1265 C1062.5,23.1265 1080.5,23.1265 1080.5,33.1265 L1080.5,59.1265 C1080.5,69.1265 1062.5,69.1265 1062.5,69.1265 C1062.5,69.1265 1044.5,69.1265 1044.5,59.1265 L1044.5,33.1265" style="stroke:#000;stroke-width:1.5"/><path fill="none" d="M1044.5,33.1265 C1044.5,43.1265 1062.5,43.1265 1062.5,43.1265 C1062.5,43.1265 1080.5,43.1265 1080.5,33.1265" style="stroke:#000;stroke-width:1.5"/><text x="1020" y="1044.112" fill="#000" font-family="sans-serif" font-size="14" lengthAdjust="spacingAndGlyphs" textLength="79">SSO Service</text><path fill="#F8F8F8" d="M1044.5,1057.0991 C1044.5,1047.0991 1062.5,1047.0991 1062.5,1047.0991 C1062.5,1047.0991 1080.5,1047.0991 1080.5,1057.0991 L1080.5,1083.0991 C1080.5,1093.0991 1062.5,1093.0991 1062.5,1093.0991 C1062.5,1093.0991 1044.5,1093.0991 1044.5,1083.0991 L1044.5,1057.0991" style="stroke:#000;stroke-width:1.5"/><path fill="none" d="M1044.5,1057.0991 C1044.5,1067.0991 1062.5,1067.0991 1062.5,1067.0991 C1062.5,1067.0991 1080.5,1067.0991 1080.5,1057.0991" style="stroke:#000;stroke-width:1.5"/><polygon fill="#383838" points="449 112.543 459 116.543 449 120.543 453 116.543" style="stroke:#383838;stroke-width:1"/><line style="stroke:#383838;stroke-width:1" x1="314" x2="455" y1="116.543" y2="116.543"/><text x="321" y="111.769" fill="#000" font-family="sans-serif" font-size="13" lengthAdjust="spacingAndGlyphs" textLength="123">Resolve Credentials</text><path fill="#EEE" d="M13,131.543 L184,131.543 L184,138.543 L174,148.543 L13,148.543 L13,131.543" style="stroke:#000;stroke-width:1"/><rect style="stroke:#000;stroke-width:2" width="1102" height="854.14" x="13" y="131.543" fill="none"/><text x="28" y="144.927" fill="#000" font-family="sans-serif" font-size="13" font-weight="bold" lengthAdjust="spacingAndGlyphs" textLength="126">Role creds expired</text><polygon fill="#383838" points="641 165.796 651 169.796 641 173.796 645 169.796" style="stroke:#383838;stroke-width:1"/><line style="stroke:#383838;stroke-width:1" x1="461" x2="647" y1="169.796" y2="169.796"/><text x="468" y="165.022" fill="#000" font-family="sans-serif" font-size="13" lengthAdjust="spacingAndGlyphs" textLength="141">Request Access Token</text><polygon fill="#383838" points="836 194.922 846 198.922 836 202.922 840 198.922" style="stroke:#383838;stroke-width:1"/><line style="stroke:#383838;stroke-width:1" x1="653" x2="842" y1="198.922" y2="198.922"/><text x="660" y="194.148" fill="#000" font-family="sans-serif" font-size="13" lengthAdjust="spacingAndGlyphs" textLength="93">Request Token</text><polygon fill="#383838" points="664 224.049 654 228.049 664 232.049 660 228.049" style="stroke:#383838;stroke-width:1"/><line style="stroke:#383838;stroke-width:1" x1="658" x2="847" y1="228.049" y2="228.049"/><text x="670" y="223.275" fill="#000" font-family="sans-serif" font-size="13" lengthAdjust="spacingAndGlyphs" textLength="84">Return Token</text><path fill="#EEE" d="M23,243.0488 L280,243.0488 L280,250.0488 L270,260.0488 L23,260.0488 L23,243.0488" style="stroke:#000;stroke-width:1"/><rect style="stroke:#000;stroke-width:2" width="1017" height="648.254" x="23" y="243.049" fill="none"/><text x="38" y="256.433" fill="#000" font-family="sans-serif" font-size="13" font-weight="bold" lengthAdjust="spacingAndGlyphs" textLength="212">Access token expired / missing</text><polygon fill="#383838" points="836 277.302 846 281.302 836 285.302 840 281.302" style="stroke:#383838;stroke-width:1"/><line style="stroke:#383838;stroke-width:1" x1="653" x2="842" y1="281.302" y2="281.302"/><text x="660" y="276.528" fill="#000" font-family="sans-serif" font-size="13" lengthAdjust="spacingAndGlyphs" textLength="171">Request Client Registration</text><polygon fill="#383838" points="664 306.428 654 310.428 664 314.428 660 310.428" style="stroke:#383838;stroke-width:1"/><line style="stroke:#383838;stroke-width:1" x1="658" x2="847" y1="310.428" y2="310.428"/><text x="670" y="305.654" fill="#000" font-family="sans-serif" font-size="13" lengthAdjust="spacingAndGlyphs" textLength="162">Return Client Registration</text><path fill="#EEE" d="M584,325.4282 L875,325.4282 L875,332.4282 L865,342.4282 L584,342.4282 L584,325.4282" style="stroke:#000;stroke-width:1"/><rect style="stroke:#000;stroke-width:2" width="436" height="104.506" x="584" y="325.428" fill="none"/><text x="599" y="338.813" fill="#000" font-family="sans-serif" font-size="13" font-weight="bold" lengthAdjust="spacingAndGlyphs" textLength="246">Client registration expired / missing</text><polygon fill="#383838" points="936 359.681 946 363.681 936 367.681 940 363.681" style="stroke:#383838;stroke-width:1"/><line style="stroke:#383838;stroke-width:1" x1="653" x2="942" y1="363.681" y2="363.681"/><text x="660" y="358.907" fill="#000" font-family="sans-serif" font-size="13" lengthAdjust="spacingAndGlyphs" textLength="163">Request to Register Client</text><polygon fill="#383838" points="664 388.808 654 392.808 664 396.808 660 392.808" style="stroke:#383838;stroke-width:1"/><line style="stroke:#383838;stroke-width:1" x1="658" x2="947" y1="392.808" y2="392.808"/><text x="670" y="388.034" fill="#000" font-family="sans-serif" font-size="13" lengthAdjust="spacingAndGlyphs" textLength="117">Client Registration</text><polygon fill="#383838" points="836 417.934 846 421.934 836 425.934 840 421.934" style="stroke:#383838;stroke-width:1"/><line style="stroke:#383838;stroke-width:1" x1="653" x2="842" y1="421.934" y2="421.934"/><text x="660" y="417.16" fill="#000" font-family="sans-serif" font-size="13" lengthAdjust="spacingAndGlyphs" textLength="149">Save Client Registration</text><polygon fill="#383838" points="936 454.06 946 458.06 936 462.06 940 458.06" style="stroke:#383838;stroke-width:1"/><line style="stroke:#383838;stroke-width:1" x1="653" x2="942" y1="458.06" y2="458.06"/><text x="660" y="453.287" fill="#000" font-family="sans-serif" font-size="13" lengthAdjust="spacingAndGlyphs" textLength="109">Start Device Auth</text><polygon fill="#383838" points="664 483.187 654 487.187 664 491.187 660 487.187" style="stroke:#383838;stroke-width:1"/><line style="stroke:#383838;stroke-width:1" x1="658" x2="947" y1="487.187" y2="487.187"/><text x="670" y="482.413" fill="#000" font-family="sans-serif" font-size="13" lengthAdjust="spacingAndGlyphs" textLength="156">Return SSO Login Details</text><polygon fill="#383838" points="226 512.313 216 516.313 226 520.313 222 516.313" style="stroke:#383838;stroke-width:1"/><line style="stroke:#383838;stroke-width:1" x1="220" x2="652" y1="516.313" y2="516.313"/><text x="232" y="511.54" fill="#000" font-family="sans-serif" font-size="13" lengthAdjust="spacingAndGlyphs" textLength="133">Open SSO Login Page</text><polygon fill="#383838" points="203 541.44 213 545.44 203 549.44 207 545.44" style="stroke:#383838;stroke-width:1"/><line style="stroke:#383838;stroke-width:1" x1="51.5" x2="209" y1="545.44" y2="545.44"/><text x="58.5" y="540.666" fill="#000" font-family="sans-serif" font-size="13" lengthAdjust="spacingAndGlyphs" textLength="116">Perform SSO Login</text><path fill="#EEE" d="M263,560.4399 L337,560.4399 L337,567.4399 L327,577.4399 L263,577.4399 L263,560.4399" style="stroke:#000;stroke-width:1"/><rect style="stroke:#000;stroke-width:2" width="767" height="323.863" x="263" y="560.44" fill="none"/><text x="278" y="573.824" fill="#000" font-family="sans-serif" font-size="13" font-weight="bold" lengthAdjust="spacingAndGlyphs" textLength="29">loop</text><text x="352" y="572.919" fill="#000" font-family="sans-serif" font-size="11" font-weight="bold" lengthAdjust="spacingAndGlyphs" textLength="103">[Check For Token]</text><polygon fill="#383838" points="936 594.693 946 598.693 936 602.693 940 598.693" style="stroke:#383838;stroke-width:1"/><line style="stroke:#383838;stroke-width:1" x1="653" x2="942" y1="598.693" y2="598.693"/><text x="660" y="593.919" fill="#000" font-family="sans-serif" font-size="13" lengthAdjust="spacingAndGlyphs" textLength="83">Create Token</text><path fill="#EEE" d="M273,613.6929 L335,613.6929 L335,620.6929 L325,630.6929 L273,630.6929 L273,613.6929" style="stroke:#000;stroke-width:1"/><rect style="stroke:#000;stroke-width:2" width="747" height="263.61" x="273" y="613.693" fill="none"/><text x="288" y="627.077" fill="#000" font-family="sans-serif" font-size="13" font-weight="bold" lengthAdjust="spacingAndGlyphs" textLength="17">alt</text><text x="350" y="626.172" fill="#000" font-family="sans-serif" font-size="11" font-weight="bold" lengthAdjust="spacingAndGlyphs" textLength="51">[Success]</text><polygon fill="#383838" points="664 647.946 654 651.946 664 655.946 660 651.946" style="stroke:#383838;stroke-width:1"/><line style="stroke:#383838;stroke-width:1" x1="658" x2="947" y1="651.946" y2="651.946"/><text x="670" y="647.172" fill="#000" font-family="sans-serif" font-size="13" lengthAdjust="spacingAndGlyphs" textLength="99">Token Returned</text><polygon fill="#383838" points="836 677.072 846 681.072 836 685.072 840 681.072" style="stroke:#383838;stroke-width:1"/><line style="stroke:#383838;stroke-width:1" x1="653" x2="842" y1="681.072" y2="681.072"/><text x="660" y="676.298" fill="#000" font-family="sans-serif" font-size="13" lengthAdjust="spacingAndGlyphs" textLength="71">Save Token</text><line style="stroke:#000;stroke-width:1;stroke-dasharray:2,2" x1="273" x2="1020" y1="690.072" y2="690.072"/><text x="278" y="700.551" fill="#000" font-family="sans-serif" font-size="11" font-weight="bold" lengthAdjust="spacingAndGlyphs" textLength="83">[Auth Pending]</text><polygon fill="#383838" points="664 720.998 654 724.998 664 728.998 660 724.998" style="stroke:#383838;stroke-width:1"/><line style="stroke:#383838;stroke-width:1" x1="658" x2="947" y1="724.998" y2="724.998"/><text x="670" y="720.224" fill="#000" font-family="sans-serif" font-size="13" lengthAdjust="spacingAndGlyphs" textLength="208">Auth Pending or Slow Down Error</text><line style="stroke:#383838;stroke-width:1" x1="653" x2="695" y1="754.125" y2="754.125"/><line style="stroke:#383838;stroke-width:1" x1="695" x2="695" y1="754.125" y2="767.125"/><line style="stroke:#383838;stroke-width:1" x1="654" x2="695" y1="767.125" y2="767.125"/><polygon fill="#383838" points="664 763.125 654 767.125 664 771.125 660 767.125" style="stroke:#383838;stroke-width:1"/><text x="660" y="749.351" fill="#000" font-family="sans-serif" font-size="13" lengthAdjust="spacingAndGlyphs" textLength="33">Sleep</text><line style="stroke:#000;stroke-width:1;stroke-dasharray:2,2" x1="273" x2="1020" y1="776.125" y2="776.125"/><text x="278" y="786.604" fill="#000" font-family="sans-serif" font-size="11" font-weight="bold" lengthAdjust="spacingAndGlyphs" textLength="37">[Error]</text><polygon fill="#383838" points="664 807.05 654 811.05 664 815.05 660 811.05" style="stroke:#383838;stroke-width:1"/><line style="stroke:#383838;stroke-width:1" x1="658" x2="947" y1="811.05" y2="811.05"/><text x="670" y="806.276" fill="#000" font-family="sans-serif" font-size="13" lengthAdjust="spacingAndGlyphs" textLength="69">Other Error</text><polygon fill="#383838" points="472 836.177 462 840.177 472 844.177 468 840.177" style="stroke:#383838;stroke-width:1"/><line style="stroke:#383838;stroke-width:1" x1="466" x2="652" y1="840.177" y2="840.177"/><text x="478" y="835.403" fill="#000" font-family="sans-serif" font-size="13" lengthAdjust="spacingAndGlyphs" textLength="168">Abort Process, Throw Error</text><polygon fill="#383838" points="325 865.303 315 869.303 325 873.303 321 869.303" style="stroke:#383838;stroke-width:1"/><line style="stroke:#383838;stroke-width:1" x1="319" x2="460" y1="869.303" y2="869.303"/><text x="331" y="864.529" fill="#000" font-family="sans-serif" font-size="13" lengthAdjust="spacingAndGlyphs" textLength="75">Report Error</text><polygon fill="#383838" points="472 915.43 462 919.43 472 923.43 468 919.43" style="stroke:#383838;stroke-width:1"/><line style="stroke:#383838;stroke-width:1" x1="466" x2="652" y1="919.43" y2="919.43"/><text x="478" y="914.656" fill="#000" font-family="sans-serif" font-size="13" lengthAdjust="spacingAndGlyphs" textLength="132">Return Access Token</text><polygon fill="#383838" points="1050.5 944.556 1060.5 948.556 1050.5 952.556 1054.5 948.556" style="stroke:#383838;stroke-width:1"/><line style="stroke:#383838;stroke-width:1" x1="461" x2="1056.5" y1="948.556" y2="948.556"/><text x="468" y="943.782" fill="#000" font-family="sans-serif" font-size="13" lengthAdjust="spacingAndGlyphs" textLength="156">Request Role Credentials</text><polygon fill="#383838" points="472 973.683 462 977.683 472 981.683 468 977.683" style="stroke:#383838;stroke-width:1"/><line style="stroke:#383838;stroke-width:1" x1="466" x2="1061.5" y1="977.683" y2="977.683"/><text x="478" y="972.909" fill="#000" font-family="sans-serif" font-size="13" lengthAdjust="spacingAndGlyphs" textLength="240">Return Role&apos;s AWS Session Credentials</text><polygon fill="#383838" points="325 1009.809 315 1013.809 325 1017.809 321 1013.809" style="stroke:#383838;stroke-width:1"/><line style="stroke:#383838;stroke-width:1" x1="319" x2="460" y1="1013.809" y2="1013.809"/><text x="331" y="1009.035" fill="#000" font-family="sans-serif" font-size="13" lengthAdjust="spacingAndGlyphs" textLength="102">AWS Credentials</text></g></svg>